<?xml version="1.0" encoding="UTF-8" standalone="no"?>
<!-- Created with Inkscape (http://www.inkscape.org/) -->
<svg id="svg2" xmlns:rdf="http://www.w3.org/1999/02/22-rdf-syntax-ns#" xmlns="http://www.w3.org/2000/svg" height="194.72" width="153.54" version="1.1" xmlns:cc="http://creativecommons.org/ns#" xmlns:dc="http://purl.org/dc/elements/1.1/">
 <defs id="defs4">
  <radialGradient id="radialGradient7757" gradientUnits="userSpaceOnUse" cy="133.64" cx="368" gradientTransform="matrix(1,0,0,1.0858335,0,-11.470952)" r="102.55">
   <stop id="stop7109" stop-color="#87cdde" offset="0"/>
   <stop id="stop7111" stop-color="#87cdde" stop-opacity="0" offset="1"/>
  </radialGradient>
  <radialGradient id="radialGradient7759" gradientUnits="userSpaceOnUse" cy="133.64" cx="368" gradientTransform="matrix(1,0,0,1.0858335,0,-11.470952)" r="102.55">
   <stop id="stop6333" stop-color="#04bafb" stop-opacity="0" offset="0"/>
   <stop id="stop6335" stop-color="#bdd7fd" offset="1"/>
  </radialGradient>
  <linearGradient id="linearGradient7763" y2="245.27" gradientUnits="userSpaceOnUse" x2="406.5" y1="245.27" x1="328.85">
   <stop id="stop7061" stop-color="#87cdde" offset="0"/>
   <stop id="stop7063" stop-color="#87cdde" stop-opacity="0" offset="1"/>
  </linearGradient>
  <linearGradient id="linearGradient7765" y2="252.28" gradientUnits="userSpaceOnUse" x2="406.15" y1="252.28" x1="330.49">
   <stop id="stop7069" stop-color="#87cdde" offset="0"/>
   <stop id="stop7071" stop-color="#87cdde" stop-opacity="0" offset="1"/>
  </linearGradient>
  <linearGradient id="linearGradient7767" y2="259.87" gradientUnits="userSpaceOnUse" x2="403.82" y1="259.87" x1="331.89">
   <stop id="stop7077" stop-color="#87cdde" offset="0"/>
   <stop id="stop7079" stop-color="#87cdde" stop-opacity="0" offset="1"/>
  </linearGradient>
  <linearGradient id="linearGradient7769" y2="267.23" gradientUnits="userSpaceOnUse" x2="403.35" y1="267.23" x1="333.29">
   <stop id="stop7085" stop-color="#87cdde" offset="0"/>
   <stop id="stop7087" stop-color="#87cdde" stop-opacity="0" offset="1"/>
  </linearGradient>
  <linearGradient id="linearGradient7771" y2="274.36" gradientUnits="userSpaceOnUse" x2="404.05" y1="274.36" x1="334.23">
   <stop id="stop7093" stop-color="#87cdde" offset="0"/>
   <stop id="stop7095" stop-color="#87cdde" stop-opacity="0" offset="1"/>
  </linearGradient>
  <linearGradient id="linearGradient7773" y2="280.32" gradientUnits="userSpaceOnUse" x2="401.36" y1="280.32" x1="334.93">
   <stop id="stop7101" stop-color="#87cdde" offset="0"/>
   <stop id="stop7103" stop-color="#87cdde" stop-opacity="0" offset="1"/>
  </linearGradient>
  <radialGradient id="radialGradient7775" gradientUnits="userSpaceOnUse" cy="426.58" cx="531.18" gradientTransform="matrix(-0.3212732,0.25608353,-0.09055,-0.11265486,537.23189,14.404176)" r="68.379">
   <stop id="stop6504" stop-color="#FFF" stop-opacity="0.55913978" offset="0"/>
   <stop id="stop6506" stop-color="#FFF" stop-opacity="0" offset="1"/>
  </radialGradient>
  <radialGradient id="radialGradient7777" gradientUnits="userSpaceOnUse" cy="426.58" cx="531.18" gradientTransform="matrix(-0.79352757,0.57037896,-0.26885031,-0.16525006,860.55416,-161.47863)" r="68.379">
   <stop id="stop6504-1" stop-color="#FFF" stop-opacity="0.55913978" offset="0"/>
   <stop id="stop6506-8" stop-color="#FFF" stop-opacity="0" offset="1"/>
  </radialGradient>
  <filter id="filter3032" height="1" width="1" color-interpolation-filters="sRGB" y="0" x="0">
   <feColorMatrix id="feColorMatrix3034" values="0" type="saturate"/>
  </filter>
 </defs>
 <metadata id="metadata7">
  <rdf:RDF>
   <cc:Work rdf:about="">
    <dc:format>image/svg+xml</dc:format>
    <dc:type rdf:resource="http://purl.org/dc/dcmitype/StillImage"/>
    <dc:title/>
   </cc:Work>
  </rdf:RDF>
 </metadata>
 <g id="g6514" filter="url(#filter3032)" transform="translate(-16.830444,-7.0712955)">
  <g id="g7737" transform="matrix(0.86479872,0,0,0.85247432,-196.91273,-35.048214)">
   <g id="g6860" transform="matrix(0.69871219,0,0,0.71133283,95.924753,63.504233)">
    <path id="path3171" d="m398.46,299.98c-0.0874,0.63768-0.18737,1.3043-0.1875,1.3125,0.0203-0.0246,0.0422-0.0379,0.0625-0.0625,0,0,0.12131-1.1961,0.125-1.25z" fill="#CCC"/>
    <path id="path2993" opacity="0.87537644" d="m366.77,23.291c-60.109,0-100.74,50.733-100.31,107.81,0.37023,49.256,48.18,82.609,59.094,104.81-0.00049-0.002-0.0313-0.0937-0.0313-0.0937s1.5447,0.55674,4.125,1.375,6.2138,1.9074,10.344,2.9688c4.13,1.0613,8.7573,2.0834,13.406,2.8125,2.3245,0.36457,4.6453,0.67008,6.9062,0.84375,2.261,0.17367,4.4626,0.21412,6.5312,0.125,4.1373-0.17825,8.7595-0.76038,13.375-1.5312,4.6155-0.77087,9.2272-1.7176,13.312-2.6562,8.0656-1.8533,13.94-3.5799,14.094-3.625,11.487-22.082,61.748-49.797,61.938-105.03,0.21-58.581-37.94-107.8-102.77-107.8z" stroke="url(#radialGradient7759)" stroke-dasharray="none" stroke-miterlimit="4" stroke-width="2" fill="url(#radialGradient7757)"/>
    <path id="path2993-8" opacity="0" stroke-width="2" d="m367,23.291c-60.109,0-100.74,50.733-100.31,107.81,0.37023,49.256,48.18,82.609,59.094,104.81-0.00049-0.002-0.0313-0.0937-0.0313-0.0937s1.5447,0.55674,4.125,1.375,6.2138,1.9074,10.344,2.9688c4.13,1.0613,8.7573,2.0834,13.406,2.8125,2.3245,0.36457,4.6453,0.67008,6.9062,0.84375,2.261,0.17367,4.4626,0.21412,6.5312,0.125,4.1373-0.17825,8.7595-0.76038,13.375-1.5312,4.6155-0.77087,9.2272-1.7176,13.312-2.6562,8.0656-1.8533,13.94-3.5799,14.094-3.625,11.487-22.082,61.748-49.797,61.938-105.03,0.21-58.581-37.95-107.8-102.78-107.8z"/>
    <path id="path6624" d="m408.25,236.75c-0.15532,0.0334-6.0751,1.3125-14.204,2.6854-4.1172,0.69541-8.7648,1.3967-13.416,1.9678-4.6515,0.57107-9.3097,1.0023-13.479,1.1344-2.0848,0.066-4.3036,0.036-6.5822-0.0926-2.2786-0.12866-4.6175-0.35499-6.9601-0.62506-4.6852-0.54016-9.3486-1.2973-13.511-2.0836-4.1621-0.78623-7.824-1.5931-10.424-2.1993-2.6004-0.60618-4.1572-1.0186-4.1572-1.0186s0.0311,0.0683,0.0315,0.0694c0.15218,0.22758,0.3662,0.47008,0.5039,0.69451,0.33224,0.54153,0.65733,1.1844,0.9749,1.9145,0.31758,0.73,2.6589,1.5941,2.9454,2.438,0.28656,0.84386-1.419,1.8518-1.1329,2.8731,0.28613,1.0213,2.5942,2.1648,2.849,3.2279,0.25474,1.0631-1.4854,2.2898-1.2336,3.4881,0.25187,1.1983,2.5236,2.5018,2.7441,3.6754,0.22045,1.1736-1.5575,2.4987-1.3427,3.7597,0.21479,1.261,2.447,2.604,2.6307,3.7802,0.18372,1.1762-1.6352,2.479-1.4603,3.6886,0.17487,1.2095,2.3643,2.4698,2.5088,3.5416,0.14455,1.0718-1.7186,2.2314-1.5864,3.2751,0.13214,1.0437,2.2756,2.0981,2.3785,2.9592,0.10289,0.86103-1.8076,1.7563-1.721,2.5199,0.0865,0.76361,2.1809,1.488,2.2397,2.0321,0.0589,0.54416-1.9022,1.0543-1.864,1.4236,0.0382,0.36925,0.0639,0.62562,0.0769,0.75485,0.0756,0.45934,0.18897,1.0881,0.18897,1.0881s5.2576,1.4979,11.842,2.9864c3.292,0.74426,6.9048,1.478,10.361,2.0372,1.7283,0.27961,3.4232,0.5308,5.0075,0.69452,1.5843,0.16371,3.0608,0.25327,4.3776,0.25465,1.3168,0.002,2.7933-0.0942,4.3776-0.25465,1.5843-0.1604,3.2792-0.39537,5.0075-0.67137,3.4566-0.55199,7.0694-1.2767,10.361-2.0141,6.5684-1.4712,11.817-2.9563,11.842-2.9633,0.0102-0.009,0.0213-0.0141,0.0315-0.0232,0.00014-0.006,0.10091-0.49992,0.18897-0.97233,0.0101-0.10453,0.0317-0.33978,0.0659-0.69114,0.0341-0.35135-1.9316-0.86312-1.8771-1.3962,0.0545-0.53309,2.1439-1.2308,2.2258-1.988,0.0818-0.75724-1.8336-1.6677-1.7348-2.5272,0.0987-0.85951,2.2376-1.8953,2.3659-2.9414,0.12825-1.0461-1.7385-2.2282-1.5967-3.3055,0.14179-1.0773,2.3287-2.3275,2.502-3.5456,0.17326-1.2181-1.6465-2.5456-1.4628-3.7318,0.1838-1.1862,2.417-2.5269,2.6339-3.7999,0.21689-1.273-1.5576-2.6211-1.3329-3.8066,0.22471-1.1855,2.5025-2.4928,2.7617-3.7038,0.25916-1.211-1.4717-2.4561-1.2071-3.5305,0.2646-1.0745,2.5854-2.2247,2.8854-3.2567,0.30005-1.0319-1.3914-2.0567-1.0855-2.9039,0.30592-0.84726,2.6654-1.7222,3.005-2.4581,0.33955-0.73592,0.68881-1.3832,1.0476-1.9273,0.11447-0.17359,0.28592-0.35794,0.40942-0.53246z" fill="#afdde9" fill-rule="nonzero"/>
    <path id="path6572" d="m329.75,241.89c8.7944,2.9578,32.448,4.4466,36.864,4.2513,8.5661,0.90711,33.927-2.011,39.889-3.8495,0.00083,0.0826,0.00018,0.0514,0.00018,0.0514s0.00062-0.0313-0.001,0.0513c-7.4114,4.7621-35.294,6.7693-40.106,6.143-4.25-0.0004-37.543-2.2395-37.543-4.9995,0.22141-0.44618,0.24797-0.63256,0.8963-1.648z" fill="url(#linearGradient7763)" fill-rule="evenodd"/>
    <path id="path6572-5" d="m331.36,248.9c8.5694,2.9578,31.618,4.4466,35.921,4.2513,8.347,0.90711,33.059-2.011,38.869-3.8495,0.00081,0.0826,0.00018,0.0514,0.00018,0.0514s0.0006-0.0313-0.00098,0.0513c-7.2218,4.7621-34.391,6.7693-39.08,6.143-4.1413-0.0004-36.582-2.2395-36.582-4.9995,0.21575-0.44618,0.24163-0.63256,0.87337-1.648z" fill="url(#linearGradient7765)" fill-rule="evenodd"/>
    <path id="path6572-9" d="m332.72,256.49c8.146,2.9578,30.056,4.4466,34.146,4.2513,7.9346,0.90711,31.425-2.011,36.948-3.8495,0.00076,0.0826,0.00016,0.0514,0.00016,0.0514s0.00058-0.0313-0.00092,0.0513c-6.865,4.7621-32.692,6.7693-37.149,6.143-3.9367-0.0004-34.775-2.2395-34.775-4.9995,0.20509-0.44618,0.22969-0.63256,0.83022-1.648z" fill="url(#linearGradient7767)" fill-rule="evenodd"/>
    <path id="path6572-7" d="m334.1,263.85c7.9343,2.9578,29.275,4.4466,33.258,4.2513,7.7283,0.90711,30.609-2.011,35.988-3.8495,0.00075,0.0826,0.00016,0.0514,0.00016,0.0514s0.00056-0.0313-0.0009,0.0513c-6.6866,4.7621-31.842,6.7693-36.183,6.143-3.8344-0.0004-33.871-2.2395-33.871-4.9995,0.19976-0.44618,0.22372-0.63256,0.80864-1.648z" fill="url(#linearGradient7769)" fill-rule="evenodd"/>
    <path id="path6572-0" d="m335.03,270.98c7.9078,2.9578,29.177,4.4466,33.147,4.2513,7.7026,0.90711,30.506-2.011,35.868-3.8495,0.00075,0.0826,0.00017,0.0514,0.00017,0.0514s0.00055-0.0313-0.0009,0.0513c-6.6643,4.7621-31.736,6.7693-36.063,6.143-3.8216-0.0004-33.758-2.2395-33.758-4.9995,0.19909-0.44618,0.22297-0.63256,0.80594-1.648z" fill="url(#linearGradient7771)" fill-rule="evenodd"/>
    <path id="path6572-57" d="m335.7,276.94c7.5241,2.9578,27.761,4.4466,31.539,4.2513,7.3288,0.90711,29.026-2.011,34.127-3.8495,0.00071,0.0826,0.00015,0.0514,0.00015,0.0514s0.00053-0.0313-0.00085,0.0513c-6.3409,4.7621-30.196,6.7693-34.313,6.143-3.6361-0.0004-32.12-2.2395-32.12-4.9995,0.18943-0.44618,0.21215-0.63256,0.76683-1.648z" fill="url(#linearGradient7773)" fill-rule="evenodd"/>
    <path id="path3173" d="m398.83,283.6c-0.0249,0.007-5.2749,1.4982-11.845,2.9756-3.2931,0.74043-6.907,1.4682-10.365,2.0225-1.7289,0.27715-3.4243,0.51309-5.0091,0.67415-1.5848,0.16107-3.0618,0.25709-4.379,0.25571-1.3172-0.002-2.7942-0.0913-4.379-0.25571-1.5848-0.1644-3.2802-0.41663-5.0091-0.69739-3.4577-0.56156-7.0717-1.2984-10.365-2.0457-6.5862-1.4947-11.845-2.9988-11.845-2.9988s-0.11341-0.63135-0.18903-1.0926c0.006,0.0622,0.15752,1.1623,0.15752,1.1623,9.5348,12.945,31.843,15.969,31.819,15.715,0,0,14.325-0.44645,31.409-15.715z" fill="#d7eef4"/>
    <path id="path6516" opacity="0.53046594" fill-rule="nonzero" fill="url(#radialGradient7775)" d="m345.44,110.62c-11.429,14.034-29.998,20.776-36.765,17.649-6.7669-3.1266-8.987-21.052,2.4417-35.086s32.178-18.863,38.945-15.736c6.7669,3.1266,6.8062,19.138-4.6225,33.173z"/>
    <path id="path6516-9" d="m372.99,79.083c-27.024,28.976-74.859,47.728-93.656,44.713-18.797-3.0147-29.097-33.811-2.0728-62.787s81.138-45.158,99.936-42.144c18.797,3.0148,22.818,31.242-4.2066,60.218z" fill="url(#radialGradient7777)" fill-rule="nonzero"/>
   </g>
   <path id="path7692" opacity="0.55197132" d="m267.68,97.269-35.95-13.511-26.998,27.312,1.7409-38.365-34.318-17.237,37.025-10.2,5.7884-37.965,21.142,32.061,37.896-6.2268-23.959,30.014z" stroke-opacity="0.16862745" fill-rule="nonzero" transform="matrix(0.62411771,0,0,0.62228275,145.30986,66.969257)" stroke="#2c89a0" stroke-miterlimit="4" stroke-dasharray="none" stroke-width="2.29999995" fill="#d7eef4"/>
   <path id="path7692-0" opacity="0.53405014" d="m267.68,97.269-35.95-13.511-26.998,27.312,1.7409-38.365-34.318-17.237,37.025-10.2,5.7884-37.965,21.142,32.061,37.896-6.2268-23.959,30.014z" stroke-opacity="0.16862745" fill-rule="nonzero" transform="matrix(0.41818405,0.05923598,-0.06811522,0.48086819,179.46235,103.64172)" stroke="#2c89a0" stroke-miterlimit="4" stroke-dasharray="none" stroke-width="2.29999995" fill="#d7eef4"/>
   <path id="path7692-9" opacity="0.62724011" d="m267.68,97.269-35.95-13.511-26.998,27.312,1.7409-38.365-34.318-17.237,37.025-10.2,5.7884-37.965,21.142,32.061,37.896-6.2268-23.959,30.014z" stroke-opacity="0.16862745" fill-rule="nonzero" transform="matrix(0.49704039,0.56880211,-0.55898859,0.48846497,252.75399,-74.740355)" stroke="#2c89a0" stroke-miterlimit="4" stroke-dasharray="none" stroke-width="2.29999995" fill="#d7eef4"/>
   <path id="path7692-0-6" opacity="0.37275983" d="m267.68,97.269-35.95-13.511-26.998,27.312,1.7409-38.365-34.318-17.237,37.025-10.2,5.7884-37.965,21.142,32.061,37.896-6.2268-23.959,30.014z" stroke-opacity="0.16862745" fill-rule="nonzero" transform="matrix(0.26696286,0.03131242,-0.04348381,0.2541892,212.78452,161.23813)" stroke="#2c89a0" stroke-miterlimit="4" stroke-dasharray="none" stroke-width="2.29999995" fill="#d7eef4"/>
  </g>
 </g>
</svg>
