<?xml version="1.0" encoding="UTF-8" standalone="no"?>
<!-- Created with Inkscape (http://www.inkscape.org/) -->
<svg id="svg2" xmlns:rdf="http://www.w3.org/1999/02/22-rdf-syntax-ns#" xmlns="http://www.w3.org/2000/svg" height="172.22" width="208.22" version="1.1" xmlns:cc="http://creativecommons.org/ns#" xmlns:dc="http://purl.org/dc/elements/1.1/">
 <defs id="defs4">
  <filter id="filter2989" height="1" width="1" color-interpolation-filters="sRGB" y="0" x="0">
   <feColorMatrix id="feColorMatrix2991" values="0" type="saturate"/>
  </filter>
 </defs>
 <metadata id="metadata7">
  <rdf:RDF>
   <cc:Work rdf:about="">
    <dc:format>image/svg+xml</dc:format>
    <dc:type rdf:resource="http://purl.org/dc/dcmitype/StillImage"/>
    <dc:title/>
   </cc:Work>
  </rdf:RDF>
 </metadata>
 <g id="layer15" filter="url(#filter2989)" transform="translate(-523.00042,-23.761318)">
  <g id="g3591" transform="matrix(1.4428126,0,0,1.4408195,264.99811,-415.91761)">
   <path id="path3214-1" d="m250.85,310.69,0,0c-18.155,0.18558-28.207,20.691-24.906,34.812,3.4998,14.974,3.7872,15.233,12.656,32.188-0.45244,18.184-36.84,8.0093-59.781,46.998l72.281,0.002v-0.0313l72.031,0.002c-22.941-38.989-59.329-28.818-59.781-47.002,8.869-16.954,9.1565-17.214,12.656-32.188,3.3155-14.185-6.8447-34.781-25.156-34.781z" fill="#d7eef4"/>
   <path id="rect3231" d="m248.44,307.06c-5.3063,0.13313-11.836,1.4854-18.406,8.25-28.672,35.194,29.419,56.973-36.25,77.375l34.469-7.75c5.2892-1.5482,10.688-2.4397,7.75-7.8125-6.2691-11.464-11.319-23.61-12.5-35.625-1.4832-15.091,8.9614-32.635,27.062-31.875,0.0321-0.001,0.0617,0.001,0.0937,0,18.1-0.75903,28.514,16.784,27.031,31.875-1.1808,12.015-6.2309,24.161-12.5,35.625-2.9381,5.3728,2.4608,6.2642,7.75,7.8125l34.469,7.75c-65.669-20.402-7.5781-42.181-36.25-77.375-7.4426-7.6629-14.817-8.3853-20.438-8.25h-0.0938c-0.70482-0.0189-1.4294-0.019-2.1875,0z" fill="#afdde9"/>
   <path id="path3240" d="m250.56,305.16c-0.52566-0.002-1.0686,0.0186-1.5625,0.0313-22.265,1.3167-30.06,19.008-31.562,37.906-0.15234,2.4837-2.1036,16.918-1.7188,19.281,2.1105,1.0103,4.1164,2.3159,6.5938,1.8438,3.2786,2.041,7.9239,4.4194,12.406,6.375,9.2354,4.0294,17.999,4.5551,19.219,2.3125,1.866-3.4296-5.845-4.1646-6.3125-1.0625-0.13926,0.92421-7.4069-1.0955-12.844-3.4688-3.9235-1.7127-7.3196-3.6022-9.9688-5.1875,0.26926-0.17323,0.5627-0.37382,0.84375-0.59375-0.20261-1.1707,1.5446-9.1963-2.5938-9.375-3.7331-0.16118-3.1512-7.7326-3.3125-10.344-1.1626-18.819,10.965-36.323,29.75-36.25,0.37314,0.004,0.71072-0.009,1.0625,0,0.44513-0.0241,0.80004-0.0263,1.25-0.0313,18.785-0.0733,30.944,17.462,29.781,36.281-0.16131,2.6112,0.42056,10.183-3.3125,10.344-4.1384,0.17867-2.3911,8.2043-2.5938,9.375,4.1462,3.2447,6.9589,1.2071,9.9375-0.21875,0.38482-2.3635-1.5664-16.798-1.7188-19.281-1.5029-18.899-9.3291-36.59-31.594-37.906-0.56303-0.0144-1.1507-0.0365-1.75-0.0313z" fill="#5fbcd3"/>
   <path id="rect3543-7" d="m237.69,384.53c-2.1869,2.6037-4.806,4.7372-9.1023,5.0195l9.669,4.8929-0.9995,4.9735c5.42,0.40399,8.4151,6.8704,12.51,10.588l0.26512-0.0747z" fill="#5fbcd3"/>
   <path id="rect3543-7-9" d="m264.04,384.51c2.1869,2.6037,4.806,4.7372,9.1023,5.0195l-9.669,4.8929,0.9995,4.9735c-5.42,0.40399-8.4151,6.8704-12.51,10.588l-0.26512-0.0747z" fill="#5fbcd3"/>
  </g>
 </g>
</svg>
